<svg version="1.1" id="Layer_1" xmlns="http://www.w3.org/2000/svg" x="0" y="0" viewBox="0 0 700 149.5" xml:space="preserve">
  <defs>
    <style>
      .st0{fill:#fff}
      .st1{fill:#0c131f}
    </style>
  </defs>
  <path class="st0" d="M54.9,109.6c-3.8,0-7.3-.4-10.4-1-3.1-.6-5.7-1.5-7.9-2.5-.6-.3-.8-.9-.8-1.7v-12.2c0-.3.1-.4.3-.6.1-.1.4-.1.6.1,2.9,1.8,5.9,3.1,9.1,4,3.2.9,6.3,1.3,9.4,1.3,3.9,0,6.7-.6,8.4-1.8,1.7-1.2,2.5-2.7,2.5-4.5,0-1.2-.3-2.2-.8-3.1-.6-.9-1.5-1.8-2.9-2.7-1.4-.9-3.2-1.8-5.6-2.7l-5.1-2.2c-4.2-1.8-7.4-3.7-9.8-5.7-2.4-2-4-4.2-4.8-6.5-.9-2.3-1.4-4.8-1.4-7.5,0-3.7.9-7.1,2.7-10,1.9-3,4.5-5.4,8.2-7.1,3.6-1.7,8.2-2.6,13.6-2.6,3.2,0,6.3.2,9.2.6,2.8.4,5.1,1.1,6.8,1.9.5.3.7.7.7,1.3v11.6c0,.1-.1.3-.3.4-.1.1-.4.1-.6-.1-2-1.1-4.5-1.9-7.1-2.6-2.7-.4-5.6-.7-8.5-.7-1.9,0-3.7.1-5,.5-1.4.4-2.5.8-3.3,1.3s-1.5,1.2-1.9,1.9c-.4.8-.6,1.6-.6,2.4,0,1.1.3,2.1.9,2.9.6.9,1.7,1.7,3.1,2.6,1.4.9,3.4,1.9,5.9,3l3.8,1.4c4.5,1.9,8,3.8,10.5,5.9s4.3,4.3,5.3,6.8,1.5,5,1.5,7.9c0,4-1.1,7.6-3.2,10.6-2.2,3-5.1,5.4-8.9,7s-8.4,2.4-13.6,2.4h0ZM115.2,98.5v8.4c0,.7-.3,1.2-.8,1.3-1.3.4-2.7.7-4.1,1s-3.1.4-4.9.4c-4.5,0-7.9-1.2-10.5-3.5-2.5-2.3-3.8-6.1-3.8-11.2v-25.3h-6.1c-.6,0-.8-.3-.8-.9v-10.2c0-.6.3-.8.9-.8h6.1c.1-1.2.1-2.5.3-4,.1-1.5.2-3.1.4-4.6.1-1.5.3-2.8.4-3.8.1-.2.1-.4.3-.6.1-.1.3-.3.5-.4l12.2-1.5c.2-.1.4-.1.5,0s.2.3.2.6c-.1,1.6-.2,3.7-.3,6.4-.1,2.7-.1,5.3-.2,7.9h9.5c.4,0,.6.3.6.8v10.4c0,.4-.1.6-.5.7h-9.7v21.9c0,2.3.4,4,1.2,5,.8,1,2.2,1.5,4.3,1.5.6,0,1.2,0,1.7-.1.6,0,1.1-.1,1.7-.1.2-.1.4-.1.6.1.2.1.3.3.3.6Z"/>
  <path class="st1" d="M213.2,79.6h15.1c-.3-1.3-.8-2.7-1.4-4.3-.6-1.6-1-3.3-1.6-5.1s-1.1-3.6-1.7-5.5c-.6-1.8-1.1-3.6-1.6-5.2-.6-1.7-.9-3.2-1.3-4.6h-.1c-.6,2.2-1.3,4.7-2,7.5-.9,3-1.7,5.9-2.7,8.9-.9,2.9-1.8,5.7-2.7,8.3ZM232,91.5h-22.2l-4.7,14.2c-.1.6-.6.8-1.1.8h-11c-.7,0-.9-.3-.8-.9l19.2-55.4c.2-.6.3-1.1.6-1.9.2-.8.3-2,.3-4,0-.5.2-.7.6-.7h15.4c.5,0,.7.2.8.6l21.8,61.6c.2.6,0,.9-.5.9h-12.5c-.6,0-.9-.2-1-.7l-4.9-14.5ZM283.9,95.5v-26c-.5-.2-1-.3-1.6-.3-.7-.1-1.3-.1-1.9-.1-2.4,0-4.7.5-6.8,1.5-2,1-3.8,2.5-5,4.4s-1.9,4.4-1.9,7.5c0,2.4.3,4.4.9,6.1.7,1.7,1.6,3.2,2.7,4.2,1.1,1.1,2.5,1.9,4,2.5,1.6.6,3.2.8,5.1.8.8,0,1.6,0,2.4-.1.7,0,1.4-.3,2.1-.5h0ZM277.9,107.6c-4.8,0-9-.9-12.9-2.7-3.9-1.8-6.8-4.6-9-8.1-2.2-3.6-3.3-8.2-3.3-13.7,0-4.7,1.1-8.9,3.3-12.6,2.2-3.9,5.3-6.8,9.6-9.2,4.2-2.3,9.2-3.4,15-3.4h1.4c.5,0,1,.1,1.8.1v-18.9c0-.5.2-.7.7-.7h12.1c.3,0,.6.2.6.6v56.8c0,1.1,0,2.3.1,3.6.1,1.4.1,2.5.3,3.4,0,.5-.2.7-.7.9-3.3,1.4-6.6,2.4-9.8,3-3.1.5-6.2.9-9.2.9ZM328.2,69c-1.8,0-3.5.6-5,1.6s-2.6,2.6-3.5,4.7c-.9,2-1.3,4.4-1.3,7.4,0,2.8.5,5.2,1.3,7.3.8,2,2,3.6,3.6,4.8s3.4,1.7,5.6,1.7c1.8,0,3.5-.6,5-1.6s2.7-2.6,3.5-4.7,1.3-4.6,1.3-7.5c0-2.6-.3-4.9-1-6.9s-1.8-3.8-3.3-5c-1.6-1.2-3.7-1.8-6.2-1.8ZM328.8,57.9c3.9,0,7.3.7,10.2,2,2.8,1.4,5.3,3.2,7.3,5.5,1.9,2.3,3.5,4.9,4.4,7.9,1,3,1.5,6,1.5,9.3,0,5-1,9.3-3.1,13.1-2,3.8-4.8,6.7-8.3,8.8-3.5,2.2-7.6,3.2-12.3,3.2-4.1,0-7.6-.7-10.6-2.2-3-1.4-5.5-3.3-7.4-5.7-1.9-2.4-3.4-5-4.3-8s-1.5-5.9-1.5-9.1c0-4.6,1-8.6,3-12.4,1.9-3.8,4.7-6.7,8.3-9,3.7-2.3,7.9-3.4,12.8-3.4ZM390.8,82c0-2.8-.6-5.2-1.6-7.2-1-1.9-2.4-3.3-4.2-4.2-1.8-.9-3.9-1.4-6-1.4-1.6,0-2.7.1-3.5.2s-1.5.3-2.2.6v26.1c.6.1,1.1.2,1.8.3.6.1,1.3.1,1.8.1,2.5,0,4.8-.6,6.8-1.6s3.8-2.6,5.1-4.7c1.3-2.2,2-4.9,2-8.2h0ZM360.6,38.4h11.7c.7,0,.9.2.9.8v19.7c1.3-.3,2.6-.6,4-.8s2.7-.3,4.1-.3c4.8,0,8.9,1,12.3,3.1,3.4,2,6,4.8,8,8.2,1.9,3.4,2.8,7.3,2.8,11.6s-.8,8.4-2.4,11.7c-1.6,3.4-3.8,6.1-6.5,8.3-2.7,2.2-5.8,3.9-9.3,5-3.4,1.1-6.9,1.7-10.6,1.7-2.6,0-5.1-.2-7.6-.6-2.5-.3-5-.9-7.4-1.7-.3-.1-.6-.5-.6-.9V39.1c0-.5.2-.7.6-.7ZM423.3,76.9h16.1c.7,0,1.3-.1,1.4-.1v-.6c0-.6-.1-1.3-.3-2.2-.2-.8-.7-1.7-1.4-2.5-.7-.9-1.5-1.6-2.5-2.2s-2.4-.8-4-.8c-1.9,0-3.5.5-4.9,1.3-1.4.9-2.3,1.9-3,3.2-.7,1.2-1.1,2.5-1.4,3.9h0ZM442.2,86.2h-18.9c.2,1.8.8,3.5,1.8,5s2.5,2.7,4.4,3.6,4.6,1.4,7.6,1.4c2.2,0,4.2-.2,6.1-.6,1.9-.3,3.9-.9,5.7-1.7.3-.2.6-.1.6.5v9.1c0,.3,0,.6-.1.7s-.2.3-.6.5c-1.8.9-4,1.6-6.3,2-2.3.5-5.1.7-8.4.7-4.6,0-8.3-.7-11.5-2.2-3.1-1.4-5.6-3.3-7.5-5.6-1.9-2.4-3.3-5-4.2-7.9-.9-2.8-1.3-5.8-1.3-8.8,0-3.3.6-6.5,1.6-9.6s2.5-5.8,4.4-8.1c1.9-2.4,4.3-4.2,7.3-5.6,2.8-1.4,6.3-2,10-2s6.7.6,9.3,1.8c2.6,1.3,4.7,2.8,6.4,5,1.6,2,2.8,4.3,3.5,6.7.7,2.4,1.1,4.9,1.1,7.2,0,1.5,0,2.7-.1,4s-.2,1.9-.3,2.5c-.1.5-.3.7-.8.8-.5.1-1.1.1-2,.2s-2,.1-3.4.1c-1.2.3-2.7.3-4.4.3h0ZM497.2,107.6c-3.5,0-6.7-.3-9.7-.9s-5.3-1.5-7.4-2.5c-.5-.2-.7-.8-.7-1.6v-11.5c0-.2.1-.5.2-.6s.3-.1.6,0c2.7,1.7,5.6,3,8.5,3.8,3,.8,5.9,1.3,8.9,1.3,3.6,0,6.3-.6,7.9-1.7s2.4-2.5,2.4-4.2c0-1-.2-1.9-.8-2.8s-1.5-1.7-2.7-2.6c-1.3-.9-3-1.7-5.2-2.6l-4.8-2c-3.9-1.7-6.9-3.4-9.2-5.3-2.2-1.9-3.8-3.9-4.7-6.1-.9-2.2-1.3-4.6-1.3-7.1,0-3.4.9-6.6,2.6-9.4,1.7-2.8,4.3-5,7.7-6.7s7.6-2.5,12.7-2.5c3,0,5.8.2,8.5.6,2.7.3,4.8,1,6.5,1.9.3.2.6.7.6,1.3v10.8c0,.2-.1.3-.2.6-.1.1-.3.1-.6,0-1.9-1.1-4.2-1.9-6.7-2.4-2.6-.6-5.2-.8-8.1-.8-1.8,0-3.3.1-4.7.5-1.3.3-2.3.7-3.1,1.3-.8.6-1.4,1.1-1.7,1.8s-.6,1.5-.6,2.2c0,1,.2,1.9.8,2.7.6.8,1.5,1.6,2.8,2.5,1.4.8,3.2,1.7,5.6,2.7l3.5,1.5c4.3,1.7,7.6,3.6,9.9,5.6,2.4,1.9,4,4.1,5,6.4.9,2.3,1.5,4.7,1.5,7.2,0,3.9-1,7.2-3,10s-4.8,5-8.3,6.6c-3.4,1.2-7.7,2-12.7,2h0ZM552.8,97v8c0,.7-.2,1.1-.7,1.3-1.4.5-2.7.8-4,1-1.4.2-2.8.3-4.6.3-4.2,0-7.5-1.1-9.8-3.3-2.3-2.2-3.4-5.7-3.4-10.5v-23.9h-5.8c-.6-.1-.8-.3-.8-.9v-9.4c0-.6.3-.9.9-.9h5.8c.1-1.1.1-2.4.2-3.9s.1-3,.3-4.3c.1-1.4.3-2.6.5-3.4.1-.2.1-.5.3-.6.1-.1.3-.2.6-.3l11.3-1.5c.2-.1.5-.1.6,0s.2.2.2.6c-.1,1.5-.2,3.5-.3,6s-.2,5-.2,7.4h9c.6,0,.8.2.8.8v9.7c0,.3-.2.6-.7.7h-9v20.6c0,2.2.3,3.6,1.1,4.7.7,1,2,1.5,4.1,1.5.6,0,1.1,0,1.6-.1s1-.1,1.6-.3c.2,0,.3,0,.5.1.1-.1-.1.3-.1.6h0ZM580.1,69c-1.8,0-3.5.6-5,1.6s-2.6,2.6-3.5,4.7c-.9,2-1.3,4.4-1.3,7.4,0,2.8.5,5.2,1.3,7.3s2,3.6,3.6,4.8,3.4,1.7,5.6,1.7c1.8,0,3.5-.6,5-1.6s2.7-2.6,3.5-4.7c.8-2,1.3-4.6,1.3-7.5,0-2.6-.3-4.9-1-6.9s-1.8-3.8-3.3-5c-1.6-1.2-3.7-1.8-6.2-1.8h0ZM580.7,57.9c3.9,0,7.3.7,10.2,2,2.8,1.4,5.3,3.2,7.3,5.5,1.9,2.3,3.5,4.9,4.4,7.9,1,3,1.5,6,1.5,9.3,0,5-1,9.3-3.1,13.1-2,3.8-4.8,6.7-8.3,8.8-3.5,2.2-7.6,3.2-12.3,3.2-4.1,0-7.6-.7-10.6-2.2-3-1.4-5.5-3.3-7.4-5.7-1.9-2.4-3.4-5-4.3-8-.9-3-1.5-5.9-1.5-9.1,0-4.6,1-8.6,3-12.4s4.7-6.7,8.3-9c3.7-2.3,7.9-3.4,12.8-3.4h0ZM646.1,95.2v10c0,.3-.1.7-.5.8-1.6.7-3.2,1-5.1,1.3-1.8.2-3.8.3-5.7.3-3.9,0-7.4-.6-10.5-1.8-3.1-1.3-5.8-3-8-5.2s-3.9-4.9-5.1-7.9c-1.1-3-1.8-6.3-1.8-9.8,0-4.8,1.1-9.1,3.4-12.9,2.3-3.8,5.3-6.7,9.4-9,4.1-2.2,8.9-3.3,14.3-3.3,2.4,0,4.2.1,5.6.3,1.4.2,2.5.5,3.2.8.3.1.6.5.6,1l-.1,9.9c0,.6-.2.8-.8.7-.9-.3-2-.7-3.4-.9-1.4-.2-3-.3-4.7-.3-2.7,0-5.1.5-7.2,1.5-2,.9-3.8,2.4-5,4.3-1.3,1.9-1.8,4.3-1.8,7.3,0,3.3.7,5.9,2.2,7.9,1.4,1.9,3.2,3.3,5.5,4.2,2.2.8,4.4,1.3,6.6,1.3,1.7,0,3.3-.1,4.7-.2s2.5-.3,3.3-.6c.6-.3.9-.2.9.3h0ZM667.2,39.3v66.3c0,.7-.3.9-.9.9h-11.6c-.7,0-.9-.3-.9-.9V39.2c0-.2.1-.3.2-.6.1-.1.3-.2.8-.2h11.5c.5,0,.9.3.9.9ZM684.5,58.8h12.4c.3,0,.6.1.7.3.1.2,0,.5-.1.7-.7.8-1.6,1.8-2.7,3.1-1.1,1.4-2.5,2.7-4,4.4-1.5,1.6-3,3.3-4.4,4.9-1.5,1.6-2.8,3.2-4.1,4.6s-2.3,2.5-3,3.3q-.1.1-.1.2t.1.2c1.4,1.7,3,3.6,4.7,5.9,1.7,2.2,3.5,4.4,5.5,6.7s3.8,4.6,5.6,6.7c1.8,2.2,3.4,4.2,4.9,5.9.2.2.2.3.1.6-.1.2-.3.3-.6.3h-15.2c-.3,0-.6,0-.7-.1-.1-.1-.3-.2-.6-.6-.8-1.1-2-2.6-3.6-4.7-1.6-2-3.3-4.3-5.2-6.7-1.8-2.4-3.5-4.7-5.1-6.8-1.6-2.2-2.8-3.8-3.8-4.9-.2-.3-.5-.7-.5-.9-.1-.2.1-.6.5-.9.8-1,1.9-2.3,3.2-3.9,1.4-1.6,2.7-3.2,4.2-5s3-3.5,4.3-5.2c1.4-1.7,2.6-3.2,3.8-4.6s1.8-2.3,2.3-2.8c.2-.3.5-.6.6-.6.2,0,.4-.1.8-.1h0Z"/>
  <g>
    <rect class="st1" y=".05" width="149.4" height="149.4" rx="26.93" ry="26.93"/>
    <path class="st0" d="M78.74,44.72l-.1,17.91c-3.89-2.97-11.67-6.24-21.19-6.24-5.63,0-7.89,1.84-7.89,4.4s1.74,3.59,9.21,5.74c19.66,5.73,24.67,12.49,24.67,22.83,0,13.61-11.26,22.01-28.87,22.01-10.54,0-18.53-2.56-24.67-6.14l.1-18.63c6.35,4.91,15.66,8.49,24.47,8.49,5.63,0,8.19-1.53,8.19-4.5s-2.66-4.4-9.93-6.35c-13.92-3.89-23.75-8.7-23.75-22.11s10.54-22.01,28.46-22.01c8.29,0,16.48,1.54,21.29,4.61M111.41,57.11h9.83v14.23h-9.82v18.22c0,4.91,2.05,6.76,5.53,6.76,1.13,0,2.76-.2,4.3-.72l.1,14.13c-2.25.82-4.71,1.33-9.32,1.33-11.67,0-18.53-5.53-18.53-18.63v-21.09h-7.68v-14.23h7.68v-13.41h17.92v13.41Z"/>
  </g>
</svg>
